<?xml version="1.0" standalone="no"?>
<!DOCTYPE svg PUBLIC "-//W3C//DTD SVG 1.1//EN" "http://www.w3.org/Graphics/SVG/1.1/DTD/svg11.dtd" >
<svg xmlns="http://www.w3.org/2000/svg">
<metadata>
Created by FontForge 20120731 at Wed Oct 12 15:25:41 2016
 By admin
</metadata>
<defs>
<font id="iconfont" horiz-adv-x="1024" >
  <font-face 
    font-family="iconfont"
    font-weight="500"
    font-stretch="normal"
    units-per-em="1024"
    panose-1="2 0 6 3 0 0 0 0 0 0"
    ascent="896"
    descent="-128"
    x-height="792"
    bbox="0 -217 1026 896"
    underline-thickness="50"
    underline-position="-100"
    unicode-range="U+0078-E68C"
  />
<missing-glyph horiz-adv-x="374" 
d="M34 0v682h272v-682h-272zM68 34h204v614h-204v-614z" />
    <glyph glyph-name=".notdef" horiz-adv-x="374" 
d="M34 0v682h272v-682h-272zM68 34h204v614h-204v-614z" />
    <glyph glyph-name=".null" horiz-adv-x="0" 
 />
    <glyph glyph-name="nonmarkingreturn" horiz-adv-x="341" 
 />
    <glyph glyph-name="x" unicode="x" horiz-adv-x="1001" 
d="M281 543q-27 -1 -53 -1h-83q-18 0 -36.5 -6t-32.5 -18.5t-23 -32t-9 -45.5v-76h912v41q0 16 -0.5 30t-0.5 18q0 13 -5 29t-17 29.5t-31.5 22.5t-49.5 9h-133v-97h-438v97zM955 310v-52q0 -23 0.5 -52t0.5 -58t-10.5 -47.5t-26 -30t-33 -16t-31.5 -4.5q-14 -1 -29.5 -0.5
t-29.5 0.5h-32l-45 128h-439l-44 -128h-29h-34q-20 0 -45 1q-25 0 -41 9.5t-25.5 23t-13.5 29.5t-4 30v167h911zM163 247q-12 0 -21 -8.5t-9 -21.5t9 -21.5t21 -8.5q13 0 22 8.5t9 21.5t-9 21.5t-22 8.5zM316 123q-8 -26 -14 -48q-5 -19 -10.5 -37t-7.5 -25t-3 -15t1 -14.5
t9.5 -10.5t21.5 -4h37h67h81h80h64h36q23 0 34 12t2 38q-5 13 -9.5 30.5t-9.5 34.5q-5 19 -11 39h-368zM336 498v228q0 11 2.5 23t10 21.5t20.5 15.5t34 6h188q31 0 51.5 -14.5t20.5 -52.5v-227h-327z" />
    <glyph glyph-name="uniE604" unicode="&#xe604;" 
d="M211 424l-40 -40l40 -40l455 -455q17 -17 40.5 -17t40 16.5t16.5 40t-17 40.5l-455 455v-80l455 455q17 17 17 40.5t-16.5 40t-40 16.5t-40.5 -17z" />
    <glyph glyph-name="uniE606" unicode="&#xe606;" horiz-adv-x="1027" 
d="M514.5 896q-104.5 0 -199 -40.5t-163 -109t-109.5 -163.5t-41 -199t41 -199t109.5 -163.5t163 -109t199 -40.5t199 40.5t163 109t109 163.5t40.5 199t-40.5 199t-109 163.5t-163 109t-199 40.5zM427 179h-63q-45 0 -78.5 23t-37.5 57q-1 8 5 13q5 5 14 5h-20
q-8 0 -13.5 6t-5.5 14t5.5 14t13.5 6h20q-9 1 -14 5q-6 6 -5 13q4 35 37.5 58t78.5 23h63h4l5 -40q-8 1 -15 1h-51q-30 0 -51.5 -12t-25.5 -30h149l10 -76h-159q4 -18 25.5 -30t51.5 -12h51q18 0 35 6l6 -40q-18 -4 -35 -4zM719 436q0 -9 -5.5 -14.5t-13.5 -5.5l-33 -247
q-2 -10 -17 -10h-137q-15 0 -17 10l-32 247q-9 0 -14.5 5.5t-5.5 14.5v19q0 9 5.5 14.5t14.5 5.5h117v58q0 4 2 8q2 5 6 9l54 54q5 5 13.5 5t14 -5.5t5.5 -14t-5 -13.5l-50 -50v-51h79q8 0 13.5 -6t5.5 -14v-19zM527 200h106l26 216h-158z" />
    <glyph glyph-name="uniE608" unicode="&#xe608;" 
d="M512 384zM0 384q0 139 68.5 257t186.5 186.5t257 68.5t257 -68.5t186.5 -186.5t68.5 -257t-68.5 -257t-186.5 -186.5t-257 -68.5t-257 68.5t-186.5 186.5t-68.5 257zM610 403q33 0 57 24l90 91q11 11 -0.5 22t-22.5 0l-89 -90q-14 -15 -35 -15t-35 14q-15 15 -15 35.5
t14 34.5l90 91q11 11 -0.5 22.5t-22.5 -0.5l-89 -90q-24 -24 -24 -57.5t24 -57.5q23 -25 58 -24zM598 473q11 -12 22 0l90 91q11 11 0 22t-22 0l-90 -91q-12 -11 0 -22zM270 191q-11 -10 -11 -24.5t11 -25.5q10 -10 24.5 -10t25.5 11l147 149l-50 49zM755 194l-437 432
q-10 10 -24.5 10t-24.5 -11q-11 -11 -10 -26v-53q0 -16 11 -28l219 -216q11 -12 27.5 -12t28.5 12l160 -158q11 -11 25.5 -10.5t24.5 10.5t10 25t-10 25z" />
    <glyph glyph-name="uniE609" unicode="&#xe609;" 
d="M723 424l40 -40l-40 -40l-455 -455q-17 -17 -40.5 -17t-40 16.5t-16.5 40t16 40.5l455 455v-80l-455 455q-16 17 -16 40.5t16.5 40t40 16.5t40.5 -17z" />
    <glyph glyph-name="uniE60C" unicode="&#xe60c;" 
d="M511 780q97 0 185.5 -38t152.5 -102t102 -152.5t38 -186t-38 -186t-102 -152.5t-152.5 -102t-186 -38t-186 38t-152.5 102t-102 152.5t-38 186t38 186t102 152.5t152.5 102t186.5 38zM590 625q0 -7 1 -16q9 -62 64 -128q56 -67 116 -85q15 -5 29 -5q29 44 25.5 98
t-38.5 96q-37 43 -92.5 54t-104.5 -14zM259 178q-1 -43 42 -50l308 207q-68 42 -98 118zM269 112l-32 31q-27 -29 -36.5 -60t-1.5 -58t30 -44t53 -20q44 -4 99.5 25t114.5 95q92 103 168 116q32 6 57 -7q22 -12 35 -38q23 -48 6 -111l42 -12q23 79 -8 142q-19 40 -55 58
q-38 20 -85 12q-91 -16 -193 -131q-52 -57 -97.5 -82.5t-79.5 -22.5q-18 2 -30 11q-10 8 -14 21q-11 36 27 75zM775 363q-74 24 -138 102q-57 68 -74 139q-45 -55 -35 -126q14 -41 46 -78.5t70 -54.5q70 -20 131 18z" />
    <glyph glyph-name="uniE60F" unicode="&#xe60f;" 
d="M512 801q-101 0 -193 -39.5t-158 -106t-105.5 -158.5t-39.5 -192.5t39.5 -192.5t105.5 -158.5t158 -105.5t193 -39t193 39t158 105.5t105.5 158.5t39.5 192.5t-39.5 192.5t-105.5 158.5t-158 106t-193 39.5zM724 533h-186l172 -196q9 -12 -1 -21q-11 -9 -21 2l-157 185
v-450q0 -8 -5 -13.5t-13 -5.5t-13 5.5t-5 13.5v427l-145 -164q-5 -6 -15 -6q-5 0 -10 4q-11 10 -1 21l165 191q2 7 5 7h-204q-7 0 -12.5 5.5t-5.5 13t5.5 13t12.5 5.5h434q8 0 13.5 -5.5t5.5 -13t-5.5 -13t-13.5 -5.5z" />
    <glyph glyph-name="uniE637" unicode="&#xe637;" 
d="M417.5 445q-25.5 0 -44 -18.5t-18.5 -44t18.5 -44t44 -18.5t44 18.5t18.5 44t-18.5 44t-44 18.5zM580.5 282q-25.5 0 -44 -18.5t-18.5 -44t18.5 -44t44 -18.5t44 18.5t18.5 44t-18.5 44t-44 18.5zM417.5 282q-25.5 0 -44 -18.5t-18.5 -44t18.5 -44t44 -18.5t44 18.5
t18.5 44t-18.5 44t-44 18.5zM518 382.5q0 -25.5 18.5 -44t44 -18.5t44 18.5t18.5 44t-18.5 44t-44 18.5t-44 -18.5t-18.5 -44zM512.5 750q-90.5 0 -173 -35.5t-142 -95t-95 -142t-35.5 -173t35.5 -173t95 -142.5t142 -95t173 -35t173 35t142 95t95 142.5t35.5 173t-35.5 173
t-95 142t-142 95t-173 35.5zM726 301q0 -94 -66.5 -160.5t-160.5 -66.5t-160.5 66.5t-66.5 160.5t66.5 160.5t160.5 66.5q14 0 30 -2q158 33 219 -52l5 -59q-1 3 -4 9t-16.5 22t-31.5 29t-51 24.5t-73 14.5q66 -24 107.5 -82.5t41.5 -130.5z" />
    <glyph glyph-name="uniE63E" unicode="&#xe63e;" 
d="M512 793q-103 0 -196.5 -40t-161 -107.5t-107.5 -161t-40 -196.5t40 -196.5t107.5 -161t161 -107.5t196.5 -40t196.5 40t161 107.5t107.5 161t40 196.5t-40 196.5t-107.5 161t-161 107.5t-196.5 40zM672 147l-13 -8l-7 -117q0 -11 -7 -18t-17 -7t-17.5 7t-7.5 18l1 4
l-62 174q69 44 125 84l-7 -116q11 6 16 -4q6 -11 -4 -17zM335 172q-4 -3 -8 -4l-16 -67q-2 -10 -10.5 -15t-18.5 -2l-11 3q3 45 -22.5 89.5t-65.5 63.5l3 12q2 10 10.5 15t18.5 2l102 -31h1l1 -1q72 60 147 115l-150 179l-4 2q-9 5 -11.5 15t2.5 19t14.5 11.5t18.5 -2.5
l117 -60l17 10q11 6 17 -5t-5 -17l-3 -1l119 -61q200 126 239 64q30 -49 -163 -164q-147 -87 -339 -170z" />
    <glyph glyph-name="uniE640" unicode="&#xe640;" 
d="M670.5 272q-8.5 0 -14.5 -6t-6 -15v0v-149q0 -8 6 -14.5t15 -6.5t15 6.5t6 15.5v148v0q0 9 -6.5 15t-15 6zM581 495v0h-222h-1q-7 0 -11.5 -4.5t-4.5 -11.5v-398h255v398q0 6 -5 11t-11 5zM448 237q0 -7 -5 -12.5t-13 -5.5h-17q-7 0 -12.5 5.5t-5.5 12.5v49q0 7 5.5 12.5
t12.5 5.5h17q8 0 13 -5.5t5 -12.5v-49zM448 364q0 -7 -5 -12.5t-13 -5.5h-17q-7 0 -12.5 5.5t-5.5 12.5v49q0 8 5.5 13t12.5 5h17q8 0 13 -5t5 -13v-49zM544 237q0 -7 -5.5 -12.5t-12.5 -5.5h-18q-7 0 -12 5.5t-5 12.5v49q0 7 5 12.5t12 5.5h18q7 0 12.5 -5.5t5.5 -12.5v-49
zM544 364q0 -7 -5.5 -12.5t-12.5 -5.5h-18q-7 0 -12 5.5t-5 12.5v49q0 8 5 13t12 5h18q7 0 12.5 -5t5.5 -13v-49zM512 793q-103 0 -196.5 -40t-161 -107.5t-107.5 -161t-40 -196.5t40 -196.5t107.5 -161t161 -107.5t196.5 -40t196.5 40t161 107.5t107.5 161t40 196.5
t-40 196.5t-107.5 161t-161 107.5t-196.5 40zM762 28h-1v0h-498v0h-1q-10 0 -18 8t-8 19t8 18.5t19 7.5h1h25v435q0 13 9.5 22.5t22.5 9.5h295h2q13 0 22.5 -9.5t9.5 -22.5l-1 -1v-190h53h1q13 0 22 -9t9 -22v-213h26h1q11 0 19 -7.5t8 -18.5t-8 -18.5t-18 -8.5z" />
    <glyph glyph-name="uniE644" unicode="&#xe644;" 
d="M454 655q-41 -5 -77.5 -23.5t-52.5 -34.5l-15 -16q16 -13 25 -40t4 -37q-2 -6 -24.5 -27.5t-43.5 -40.5l-21 -18q15 -5 26.5 -11t15.5 -9l4 -4q-13 -28 -15.5 -53.5t3 -40.5t13.5 -26t14 -15.5t7 -4.5q12 1 29.5 2t62 2.5t53.5 -3.5q16 -3 32.5 -40t25 -68.5t8.5 -35.5
h142q2 6 -38 95q-12 27 -13.5 48t5.5 37t16 28.5t21 30.5t18 36q36 110 -37 192q-35 39 -85.5 61.5t-102.5 15.5zM513 896q-104 0 -198.5 -40.5t-163 -109t-109 -163t-40.5 -198.5t40.5 -198.5t109 -163t163 -109t198.5 -40.5t198.5 40.5t163 109t109 163t40.5 198.5
t-40.5 198.5t-109 163t-163 109t-198.5 40.5zM781 211q28 -1 34 -23q3 -12 -4 -12q-61 -3 -92 23t-21 75q10 46 37 101.5t44 124.5q4 23 5.5 39.5t-5 26.5t-13 16t-18 7.5t-20.5 1.5t-20 -2.5t-16.5 -4t-10.5 -3.5q65 -92 29 -200q-8 -23 -24.5 -46.5t-26.5 -37t-9.5 -39.5
t19.5 -62q49 -94 49 -109l-216 -5q-1 5 -2 14t-5 32t-9.5 41t-14.5 34.5t-20 18.5q-18 5 -56 5.5t-67 -0.5l-29 -1q-3 2 -8 6t-16.5 18.5t-18 30.5t-6.5 41.5t11 52.5q-19 20 -55 31q91 93 98 108q6 12 -7 36t-35 27q4 4 10 11t26.5 25t42 32t53.5 27t63 15q59 5 113.5 -18
t91.5 -64l1 -1q15 8 35.5 13.5t47 4.5t42.5 -16q21 -19 28.5 -41.5t0.5 -56t-22 -69.5t-44 -96q-62 -129 30 -132z" />
    <glyph glyph-name="uniE649" unicode="&#xe649;" 
d="M512 -359zM889 185q-31 73 -88 130t-130 88q-21 9 -43 15q45 29 72 77t27 104q0 88 -63 151.5t-152 63.5t-152 -63.5t-63 -151.5q0 -56 26.5 -104t71.5 -77q-22 -6 -43 -15q-73 -31 -129.5 -88t-87.5 -130q-33 -76 -33 -159q0 -11 7.5 -18.5t18.5 -7.5t18.5 7.5t7.5 18.5
q0 71 27 136.5t77.5 116.5t116 78t137.5 27t137 -27t116 -78t78 -116.5t27 -136.5q0 -11 7.5 -18.5t18 -7.5t18 7.5t7.5 18.5q0 83 -32 159zM348 598.5q0 67.5 48 115.5t115.5 48t115.5 -48t48 -115.5t-48 -115.5t-115.5 -48t-115.5 48t-48 115.5z" />
    <glyph glyph-name="uniE64B" unicode="&#xe64b;" 
d="M717 575h-91v56q0 19 -13 32t-32 13h-217q-18 0 -31.5 -13t-13.5 -32v-56h-89q-11 0 -19 -8.5t-8 -19.5v-26q0 -12 8 -20t19 -8h34v-434q0 -22 15.5 -37t37.5 -15h308q22 0 37 15t15 37v434h40q11 0 19.5 8t8.5 20v26q0 11 -8.5 19.5t-19.5 8.5zM510 493v-441h-78v441h78
zM350 631q0 6 4 10t10 4h217q6 0 10.5 -4t4.5 -10v-56h-246v56zM309 59v434h78v-441h-70q-8 0 -8 7zM632 59q0 -7 -6 -7h-71v441h77v-434z" />
    <glyph glyph-name="uniE64F" unicode="&#xe64f;" 
d="M895 166q-8 10 -21 21l-1 1l-49 29q-19 10 -18 25l1 3v1l7 180q9 89 -23 160q-26 58 -77 101q-54 47 -118 66q-5 2 -9 4q-10 20 -30 33t-44 13q-23 0 -42.5 -12.5t-29.5 -32.5q-9 -2 -16 -5q-63 -19 -118 -66q-51 -43 -76 -101q-33 -71 -23 -159l7 -181v-1v-3
q2 -14 -18 -25l-48 -29l-2 -1q-10 -8 -20 -21q-23 -30 -17 -56q3 -16 19 -30.5t33 -16.5h4h175q12 -49 45 -87q53 -59 126 -59q64 0 113 41.5t60 104.5h171h4q16 1 32 16t20 31q5 26 -17 56zM512 -38q-53 0 -92 44q-23 25 -33 57h123h2h127q-10 -44 -45.5 -72.5t-81.5 -28.5
zM868 119q-2 -10 -19 -11h-337h-2h-338q-17 1 -18 11q0 4 0.5 7.5t1.5 5.5t4 5.5t4 4.5t5.5 5t5.5 5l44 25q31 17 39 46q4 14 2 27l-7 179v2q-15 137 82 221q48 41 104 58l1 1h1q14 6 45 11q14 2 25 3q11 -1 25 -3q30 -5 44 -11h1l2 -1q3 0 15.5 -4.5t39 -19.5t48.5 -34
q97 -84 83 -221v-2l-7 -179q-2 -13 1 -27q8 -29 40 -46l43 -25q1 -1 5.5 -5t6 -5t4.5 -4.5t3.5 -5.5t1.5 -5.5t1 -7.5z" />
    <glyph glyph-name="uniE662" unicode="&#xe662;" 
d="M36 724q0 35 23.5 59.5t57 24.5t57 -24.5t23.5 -59.5t-23.5 -59.5t-57 -24.5t-57 24.5t-23.5 59.5zM972 686h-637q-19 0 -32.5 14t-13.5 34t13.5 34t32.5 14h638q19 0 32.5 -14t13.5 -34t-13.5 -34t-33.5 -14zM36 384q0 35 23.5 59.5t57 24.5t57 -24.5t23.5 -59.5
t-23.5 -59.5t-57 -24.5t-57 24.5t-23.5 59.5zM972 345h-637q-19 0 -32.5 14t-13.5 34t13.5 34t32.5 14h638q19 0 32.5 -14t13.5 -34t-13.5 -34t-33.5 -14zM36 44q0 35 23.5 59.5t57 24.5t57 -24.5t23.5 -59.5t-23.5 -59.5t-57 -24.5t-57 24.5t-23.5 59.5zM972 5h-637
q-19 0 -32.5 14t-13.5 34t13.5 34t32.5 14h638q19 0 32.5 -14t13.5 -34t-13.5 -34t-33.5 -14z" />
    <glyph glyph-name="uniE673" unicode="&#xe673;" 
d="M512 812q-139 0 -257 -68.5t-186.5 -186.5t-68.5 -257t68.5 -257t186.5 -186.5t257 -68.5t257 68.5t186.5 186.5t68.5 257t-68.5 257t-186.5 186.5t-257 68.5zM195 550q0 7 4 11t10 4h250q6 0 10.5 -4t4.5 -11v-132q0 -6 -4.5 -10.5t-10.5 -4.5h-250q-6 0 -10 4.5
t-4 10.5v132zM731 36q-45 0 -80 29t-43 74h-195q-8 -45 -42.5 -74t-80.5 -29q-50 0 -86 34t-38 83h-1v44v30l74 103h-44v44h279v-44l-11 -19l-9 -14l-24 -41h111l65 118v88h-44v44h118h7q22 0 37 -15t15 -36q0 -2 -1 -7l1 -1l-1 -2q-2 -9 -7 -17l-22 -54v-74l30 -14l-1 -1
q50 -2 84 -38t34 -86q0 -52 -36.5 -88.5t-88.5 -36.5zM731 227q-27 0 -46.5 -19.5t-19.5 -47t19.5 -46.5t47 -19t47 19t19.5 46.5t-19.5 47t-47.5 19.5zM731 139q-9 0 -15.5 6.5t-6.5 15.5t6.5 15.5t16 6.5t15.5 -6.5t6 -15.5t-6 -15.5t-16 -6.5zM253 521h162v-29h-162v29z
M290 227q-27 0 -46.5 -19.5t-19.5 -47t19.5 -46.5t47 -19t46.5 19t19 46.5t-19 47t-47 19.5zM290 139q-9 0 -15.5 6.5t-6.5 15.5t6.5 15.5t15.5 6.5t15.5 -6.5t6.5 -15.5t-6.5 -15.5t-15.5 -6.5zM290 139z" />
    <glyph glyph-name="uniE677" unicode="&#xe677;" 
d="M165 827zM866 127q0 -60 -36 -94.5t-97 -34.5h-435q-61 0 -97 34.5t-36 94.5q0 26 1.5 51.5t7 54.5t13.5 54t21 48.5t30.5 40t43 26.5t55.5 10q5 0 21 -10.5t37 -23.5t54 -24t66.5 -11t66.5 11t54 24t37 23.5t21 10.5q30 0 55.5 -10t43 -26.5t30.5 -40t21 -48.5t13.5 -54
t7 -54.5t1.5 -51.5zM707 572q0 -79 -56 -135t-135.5 -56.5t-135.5 56t-56 135.5t56 135t135.5 56t135.5 -56t56 -135z" />
    <glyph glyph-name="uniE683" unicode="&#xe683;" 
d="M405 486q3 3 8 7t18 10.5t25 5.5t24.5 -8.5t18.5 -14.5l6 -7q16 10 30 8t22 -9l9 -8l69 88h-313zM512 896q-139 0 -257 -68.5t-186.5 -186.5t-68.5 -257t68.5 -257t186.5 -186.5t257 -68.5t257 68.5t186.5 186.5t68.5 257t-68.5 257t-186.5 186.5t-257 68.5zM751 530
q-8 0 -16 1q-76 -79 -219 -225v-174h95q14 0 24 -10t10 -24t-10 -24t-24 -10h-256q-13 0 -23 10t-10 24t10 24t23 10h104v174l-256 270q-37 45 0 47h462q3 33 27.5 56t58.5 23q36 0 61.5 -25t25.5 -61t-25.5 -61t-61.5 -25z" />
    <glyph glyph-name="uniE68C" unicode="&#xe68c;" 
d="M512 537zM449 537q0 26 18.5 44.5t44.5 18.5t44.5 -18.5t18.5 -44.5t-18.5 -44.5t-44.5 -18.5t-44.5 18.5t-18.5 44.5zM512 831q-91 0 -173.5 -35.5t-142.5 -95.5t-95.5 -142.5t-35.5 -173.5t35.5 -173.5t95.5 -142.5t142.5 -95.5t173.5 -35.5t173.5 35.5t142.5 95.5
t95.5 142.5t35.5 173.5t-35.5 173.5t-95.5 142.5t-142.5 95.5t-173.5 35.5zM512 653q60 0 102 -42.5t42 -101.5q0 -69 -126 -198q-18 -19 -18 -18l-16 15q-9 10 -34 38t-44 53t-34.5 56.5t-15.5 53.5q0 59 42 101.5t102 42.5zM512 233q48 0 82 12.5t34 30.5q0 21 -46 34
q4 5 9 10q34 -8 54.5 -22.5t20.5 -31.5q0 -26 -45 -44.5t-109 -18.5t-109 18.5t-45 44.5q0 17 20.5 31.5t54.5 22.5q5 -5 9 -10q-46 -13 -46 -34q0 -18 34 -30.5t82 -12.5zM512 132q-108 0 -184.5 33.5t-76.5 80.5q0 35 43.5 63t113.5 42q5 -7 11 -14q-56 -11 -90.5 -32
t-34.5 -46q0 -36 63.5 -61.5t154.5 -25.5t154.5 25.5t63.5 61.5q0 25 -34.5 46t-90.5 32q6 7 11 14q70 -14 113.5 -42t43.5 -63q0 -47 -76.5 -80.5t-184.5 -33.5z" />
  </font>
</defs>
</svg>
